# xmcd CD database file
#
# Track frame offsets:
#	150
#	23558
#	60808
#	101359
#	120233
#	143438
#	169284
#	204155
#	229405
#	251663
#	276909
#
# Disc length: 3985 seconds
#
# Revision: 0
# Processed by: cddbd v1.5.2PL0 Copyright (c) Steve Scherf et al.
# Submitted via: CDex 1.70beta2
#
DISCID=850f8f0b
DTITLE=Willy Egmose - That´s Live
DYEAR=1998
DGENRE=Jazz
TTITLE0=Tricotism
TTITLE1=When lights are low
TTITLE2=Work song
TTITLE3=Days of wine and roses
TTITLE4=Greensleeves
TTITLE5=Soft winds
TTITLE6=Lady be good
TTITLE7=Some other blues
TTITLE8=Laverne walk
TTITLE9=It could happen to you
TTITLE10=Black coffee
EXTD=YEAR: 1998
EXTT0=
EXTT1=
EXTT2=
EXTT3=
EXTT4=
EXTT5=
EXTT6=
EXTT7=
EXTT8=
EXTT9=
EXTT10=
PLAYORDER=
